<!-- Generated by IcoMoon.io -->
<svg version="1.1" xmlns="http://www.w3.org/2000/svg" width="128" height="128" viewBox="0 0 128 128">
<title>o</title>
<path d="M115.6 42.2c-2.825-6.675-6.862-12.663-12-17.8s-11.125-9.175-17.8-12c-6.912-2.912-14.237-4.4-21.8-4.4s-14.888 1.488-21.8 4.4c-6.675 2.825-12.663 6.863-17.8 12s-9.175 11.125-12 17.8c-2.912 6.913-4.4 14.237-4.4 21.8s1.488 14.888 4.4 21.8c2.825 6.675 6.863 12.662 12 17.8s11.125 9.175 17.8 12c6.913 2.912 14.237 4.4 21.8 4.4s14.888-1.487 21.8-4.4c6.675-2.825 12.662-6.862 17.8-12s9.175-11.125 12-17.8c2.925-6.912 4.4-14.25 4.4-21.8 0-7.563-1.487-14.888-4.4-21.8zM64 104c-22.050 0-40-17.95-40-40s17.95-40 40-40c22.050 0 40 17.95 40 40s-17.95 40-40 40z"></path>
</svg>
