<!-- Generated by IcoMoon.io -->
<svg version="1.1" xmlns="http://www.w3.org/2000/svg" width="128" height="128" viewBox="0 0 128 128">
<title>x</title>
<path d="M75.313 64l42.338-42.337c3.125-3.125 3.125-8.188 0-11.313s-8.188-3.125-11.313 0l-42.338 42.337-42.337-42.35c-3.125-3.125-8.188-3.125-11.313 0s-3.125 8.188 0 11.313l42.337 42.35-42.35 42.338c-3.125 3.125-3.125 8.188 0 11.313 1.563 1.575 3.613 2.35 5.662 2.35s4.1-0.775 5.662-2.338l42.338-42.35 42.338 42.338c1.563 1.563 3.612 2.338 5.662 2.338s4.1-0.775 5.662-2.338c3.125-3.125 3.125-8.188 0-11.313l-42.35-42.338z"></path>
</svg>
